<svg width="35" height="35" viewBox="0 0 35 35" fill="none" xmlns="http://www.w3.org/2000/svg">
<g clip-path="url(#clip0_2_131)">
<path d="M5.12971 26.7293V7.83158C5.12971 6.7178 5.57216 5.64964 6.35972 4.86209C7.14728 4.07453 8.21544 3.63208 9.32922 3.63208H28.9269C29.2981 3.63208 29.6542 3.77956 29.9167 4.04208C30.1792 4.3046 30.3267 4.66065 30.3267 5.03191V30.2289C30.3267 30.6002 30.1792 30.9562 29.9167 31.2187C29.6542 31.4813 29.2981 31.6287 28.9269 31.6287H10.0291C8.72973 31.6287 7.48354 31.1126 6.56472 30.1937C5.6459 29.2749 5.12971 28.0287 5.12971 26.7293ZM27.5271 28.8291V24.6296H10.0291C9.47224 24.6296 8.93816 24.8508 8.54438 25.2446C8.1506 25.6384 7.92938 26.1724 7.92938 26.7293C7.92938 27.2862 8.1506 27.8203 8.54438 28.2141C8.93816 28.6079 9.47224 28.8291 10.0291 28.8291H27.5271ZM7.92938 22.3017C8.58547 21.9901 9.30283 21.8289 10.0291 21.8299H27.5271V6.43175H9.32922C8.95796 6.43175 8.6019 6.57923 8.33938 6.84175C8.07686 7.10427 7.92938 7.46032 7.92938 7.83158V22.3017Z" fill="white"/>
</g>
<defs>
<clipPath id="clip0_2_131">
<rect width="33.596" height="33.596" fill="white" transform="translate(0.930237 0.83252)"/>
</clipPath>
</defs>
</svg>
